<svg width="100" height="100" viewBox="0 0 100 100" fill="none" xmlns="http://www.w3.org/2000/svg">
<circle cx="50" cy="50" r="50" fill="white"/>
<path d="M34.1968 31.334C34.4775 31.334 34.7625 31.7551 35.1155 32.6036C35.3282 33.0311 35.6089 33.4522 35.543 33.8095C35.4771 34.1668 35.056 34.4475 34.6221 35.1621" stroke="black" stroke-width="2" stroke-linecap="round"/>
<path d="M67.7988 29.207C68.0796 29.207 68.5049 29.6281 69.0004 30.4767C69.2152 30.9042 69.3556 31.3252 69.4279 32.3142C69.5002 33.3031 69.5002 34.8471 69.0749 36.4379" stroke="black" stroke-width="2" stroke-linecap="round"/>
<path d="M29.5181 61.9585C30.7856 62.8007 33.6184 65.3528 36.5958 66.9861C38.7996 68.195 40.5685 68.6194 42.3422 69.1872C44.376 69.8384 51.9932 70.04 56.8039 69.334C58.8837 69.0287 60.5596 68.0579 62.2631 67.1371C63.864 66.2717 65.6638 65.6505 68.4966 64.1618C71.0086 62.8417 73.1753 60.9717 74.9533 59.7659C75.3106 59.4107 75.5913 58.9896 75.9465 58.7025C76.3016 58.4154 76.7227 58.275 78.0072 57.7051" stroke="black" stroke-width="2" stroke-linecap="round"/>
<path d="M57.165 42.3926C57.165 42.6733 57.165 43.8005 57.0246 45.4997C56.6036 46.6375 55.8932 47.3521 55.0447 47.9178C54.6172 48.2028 54.1961 48.4835 53.3369 49.1981" stroke="black" stroke-width="2" stroke-linecap="round"/>
</svg>
