<svg width="48" height="48" viewBox="0 0 48 48" fill="none" xmlns="http://www.w3.org/2000/svg">
<ellipse cx="9.92292" cy="9.75369" rx="9.92292" ry="9.75369" transform="matrix(-0.609101 -0.793093 -0.710065 0.704136 48 25.9087)" fill="#7B99F4"/>
<ellipse cx="9.92292" cy="9.75369" rx="9.92292" ry="9.75369" transform="matrix(-0.609101 -0.793093 -0.710065 0.704136 36.7683 15.7397)" fill="#0082CD"/>
<ellipse cx="9.75369" cy="9.92292" rx="9.75369" ry="9.92292" transform="matrix(0.710065 -0.704136 -0.609101 -0.793093 23.1189 48)" fill="#FFBF20"/>
<ellipse cx="9.75369" cy="9.92292" rx="9.75369" ry="9.92292" transform="matrix(0.710065 -0.704136 -0.609101 -0.793093 12.0881 39.644)" fill="#488B36"/>
<g filter="url(#filter0_d_205_109)">
<path d="M19.9351 28.8208L20.1255 29.9854C19.7544 30.0635 19.4224 30.1025 19.1294 30.1025C18.6509 30.1025 18.2798 30.0269 18.0161 29.8755C17.7524 29.7241 17.5669 29.5264 17.4595 29.2822C17.3521 29.0332 17.2983 28.5132 17.2983 27.7222V23.2471H16.3315V22.2217H17.2983V20.2954L18.6094 19.5044V22.2217H19.9351V23.2471H18.6094V27.7954C18.6094 28.1714 18.6313 28.4131 18.6753 28.5205C18.7241 28.6279 18.7998 28.7134 18.9023 28.7769C19.0098 28.8403 19.1611 28.8721 19.3564 28.8721C19.5029 28.8721 19.6958 28.855 19.9351 28.8208ZM26.5562 27.4951L27.9185 27.6636C27.7036 28.4595 27.3057 29.0771 26.7246 29.5166C26.1436 29.9561 25.4014 30.1758 24.498 30.1758C23.3604 30.1758 22.457 29.8267 21.7881 29.1284C21.124 28.4253 20.792 27.4414 20.792 26.1768C20.792 24.8682 21.1289 23.8525 21.8027 23.1299C22.4766 22.4072 23.3506 22.0459 24.4248 22.0459C25.4648 22.0459 26.3145 22.3999 26.9736 23.1079C27.6328 23.8159 27.9624 24.812 27.9624 26.0962C27.9624 26.1743 27.96 26.2915 27.9551 26.4478H22.1543C22.2031 27.3022 22.4448 27.9565 22.8794 28.4106C23.314 28.8647 23.856 29.0918 24.5054 29.0918C24.9888 29.0918 25.4014 28.9648 25.7432 28.7109C26.085 28.457 26.356 28.0518 26.5562 27.4951ZM22.2275 25.3638H26.5708C26.5122 24.7095 26.3462 24.2188 26.0728 23.8916C25.6528 23.3838 25.1084 23.1299 24.4395 23.1299C23.834 23.1299 23.3237 23.3325 22.9087 23.7378C22.4985 24.1431 22.2715 24.6851 22.2275 25.3638ZM29.5884 20.7788V19.2627H30.9067V20.7788H29.5884ZM29.5884 30V22.2217H30.9067V30H29.5884Z" fill="white"/>
</g>
<rect x="29.8799" y="19.6201" width="0.75" height="0.75" fill="black"/>
<defs>
<filter id="filter0_d_205_109" x="12.3315" y="19.2627" width="22.5752" height="18.9131" filterUnits="userSpaceOnUse" color-interpolation-filters="sRGB">
<feFlood flood-opacity="0" result="BackgroundImageFix"/>
<feColorMatrix in="SourceAlpha" type="matrix" values="0 0 0 0 0 0 0 0 0 0 0 0 0 0 0 0 0 0 127 0" result="hardAlpha"/>
<feOffset dy="4"/>
<feGaussianBlur stdDeviation="2"/>
<feComposite in2="hardAlpha" operator="out"/>
<feColorMatrix type="matrix" values="0 0 0 0 0 0 0 0 0 0 0 0 0 0 0 0 0 0 0.31 0"/>
<feBlend mode="normal" in2="BackgroundImageFix" result="effect1_dropShadow_205_109"/>
<feBlend mode="normal" in="SourceGraphic" in2="effect1_dropShadow_205_109" result="shape"/>
</filter>
</defs>
</svg>
