<svg width="64" height="64" viewBox="0 0 64 64" fill="none" xmlns="http://www.w3.org/2000/svg">
<ellipse cx="13.2306" cy="13.0049" rx="13.2306" ry="13.0049" transform="matrix(-0.609101 -0.793093 -0.710065 0.704136 64 34.5449)" fill="#7B99F4"/>
<ellipse cx="13.2306" cy="13.0049" rx="13.2306" ry="13.0049" transform="matrix(-0.609101 -0.793093 -0.710065 0.704136 49.0244 20.9863)" fill="#0082CD"/>
<ellipse cx="13.0049" cy="13.2306" rx="13.0049" ry="13.2306" transform="matrix(0.710065 -0.704136 -0.609101 -0.793093 30.825 64)" fill="#FFBF20"/>
<ellipse cx="13.0049" cy="13.2306" rx="13.0049" ry="13.2306" transform="matrix(0.710065 -0.704136 -0.609101 -0.793093 16.1174 52.8584)" fill="#488B36"/>
<g filter="url(#filter0_d_205_87)">
<path d="M26.5801 37.4277L26.834 38.9805C26.3392 39.0846 25.8965 39.1367 25.5059 39.1367C24.8678 39.1367 24.373 39.0358 24.0215 38.834C23.6699 38.6322 23.4225 38.3685 23.2793 38.043C23.1361 37.7109 23.0645 37.0176 23.0645 35.9629V29.9961H21.7754V28.6289H23.0645V26.0605L24.8125 25.0059V28.6289H26.5801V29.9961H24.8125V36.0605C24.8125 36.5618 24.8418 36.8841 24.9004 37.0273C24.9655 37.1706 25.0664 37.2845 25.2031 37.3691C25.3464 37.4538 25.5482 37.4961 25.8086 37.4961C26.0039 37.4961 26.2611 37.4733 26.5801 37.4277ZM35.4082 35.6602L37.2246 35.8848C36.9382 36.946 36.4076 37.7695 35.6328 38.3555C34.8581 38.9414 33.8685 39.2344 32.6641 39.2344C31.1471 39.2344 29.9427 38.7689 29.0508 37.8379C28.1654 36.9004 27.7227 35.5885 27.7227 33.9023C27.7227 32.1576 28.1719 30.8034 29.0703 29.8398C29.9688 28.8763 31.1341 28.3945 32.5664 28.3945C33.9531 28.3945 35.0859 28.8665 35.9648 29.8105C36.8438 30.7546 37.2832 32.0827 37.2832 33.7949C37.2832 33.8991 37.2799 34.0553 37.2734 34.2637H29.5391C29.6042 35.403 29.9264 36.2754 30.5059 36.8809C31.0853 37.4863 31.8079 37.7891 32.6738 37.7891C33.3184 37.7891 33.8685 37.6198 34.3242 37.2812C34.7799 36.9427 35.1413 36.4023 35.4082 35.6602ZM29.6367 32.8184H35.4277C35.3496 31.946 35.1283 31.2917 34.7637 30.8555C34.2038 30.1784 33.4779 29.8398 32.5859 29.8398C31.7786 29.8398 31.0983 30.11 30.5449 30.6504C29.998 31.1908 29.6953 31.9134 29.6367 32.8184ZM39.4512 26.7051V24.6836H41.209V26.7051H39.4512ZM39.4512 39V28.6289H41.209V39H39.4512Z" fill="white"/>
</g>
<rect x="39.8301" y="25.2002" width="1" height="1" fill="black"/>
<defs>
<filter id="filter0_d_205_87" x="17.7754" y="24.6836" width="27.4336" height="22.5508" filterUnits="userSpaceOnUse" color-interpolation-filters="sRGB">
<feFlood flood-opacity="0" result="BackgroundImageFix"/>
<feColorMatrix in="SourceAlpha" type="matrix" values="0 0 0 0 0 0 0 0 0 0 0 0 0 0 0 0 0 0 127 0" result="hardAlpha"/>
<feOffset dy="4"/>
<feGaussianBlur stdDeviation="2"/>
<feComposite in2="hardAlpha" operator="out"/>
<feColorMatrix type="matrix" values="0 0 0 0 0 0 0 0 0 0 0 0 0 0 0 0 0 0 0.31 0"/>
<feBlend mode="normal" in2="BackgroundImageFix" result="effect1_dropShadow_205_87"/>
<feBlend mode="normal" in="SourceGraphic" in2="effect1_dropShadow_205_87" result="shape"/>
</filter>
</defs>
</svg>
