<svg width="96" height="96" viewBox="0 0 96 96" fill="none" xmlns="http://www.w3.org/2000/svg">
<ellipse cx="19.8458" cy="19.5074" rx="19.8458" ry="19.5074" transform="matrix(-0.609101 -0.793093 -0.710065 0.704136 96 51.8174)" fill="#7B99F4"/>
<ellipse cx="19.8458" cy="19.5074" rx="19.8458" ry="19.5074" transform="matrix(-0.609101 -0.793093 -0.710065 0.704136 73.5366 31.479)" fill="#0082CD"/>
<ellipse cx="19.5074" cy="19.8458" rx="19.5074" ry="19.8458" transform="matrix(0.710065 -0.704136 -0.609101 -0.793093 46.2375 96)" fill="#FFBF20"/>
<ellipse cx="19.5074" cy="19.8458" rx="19.5074" ry="19.8458" transform="matrix(0.710065 -0.704136 -0.609101 -0.793093 24.1763 79.2876)" fill="#488B36"/>
<g filter="url(#filter0_d_205_131)">
<path d="M39.8701 55.6416L40.251 57.9707C39.5088 58.127 38.8447 58.2051 38.2588 58.2051C37.3018 58.2051 36.5596 58.0537 36.0322 57.751C35.5049 57.4482 35.1338 57.0527 34.9189 56.5645C34.7041 56.0664 34.5967 55.0264 34.5967 53.4443V44.4941H32.6631V42.4434H34.5967V38.5908L37.2188 37.0088V42.4434H39.8701V44.4941H37.2188V53.5908C37.2188 54.3428 37.2627 54.8262 37.3506 55.041C37.4482 55.2559 37.5996 55.4268 37.8047 55.5537C38.0195 55.6807 38.3223 55.7441 38.7129 55.7441C39.0059 55.7441 39.3916 55.71 39.8701 55.6416ZM53.1123 52.9902L55.8369 53.3271C55.4072 54.9189 54.6113 56.1543 53.4492 57.0332C52.2871 57.9121 50.8027 58.3516 48.9961 58.3516C46.7207 58.3516 44.9141 57.6533 43.5762 56.2568C42.248 54.8506 41.584 52.8828 41.584 50.3535C41.584 47.7363 42.2578 45.7051 43.6055 44.2598C44.9531 42.8145 46.7012 42.0918 48.8496 42.0918C50.9297 42.0918 52.6289 42.7998 53.9473 44.2158C55.2656 45.6318 55.9248 47.624 55.9248 50.1924C55.9248 50.3486 55.9199 50.583 55.9102 50.8955H44.3086C44.4062 52.6045 44.8896 53.9131 45.7588 54.8213C46.6279 55.7295 47.7119 56.1836 49.0107 56.1836C49.9775 56.1836 50.8027 55.9297 51.4863 55.4219C52.1699 54.9141 52.7119 54.1035 53.1123 52.9902ZM44.4551 48.7275H53.1416C53.0244 47.4189 52.6924 46.4375 52.1455 45.7832C51.3057 44.7676 50.2168 44.2598 48.8789 44.2598C47.668 44.2598 46.6475 44.665 45.8174 45.4756C44.9971 46.2861 44.543 47.3701 44.4551 48.7275ZM59.1768 39.5576V36.5254H61.8135V39.5576H59.1768ZM59.1768 58V42.4434H61.8135V58H59.1768Z" fill="white"/>
</g>
<rect x="59.75" y="37.25" width="1.5" height="1.5" fill="black"/>
<defs>
<filter id="filter0_d_205_131" x="28.6631" y="36.5254" width="37.1504" height="29.8262" filterUnits="userSpaceOnUse" color-interpolation-filters="sRGB">
<feFlood flood-opacity="0" result="BackgroundImageFix"/>
<feColorMatrix in="SourceAlpha" type="matrix" values="0 0 0 0 0 0 0 0 0 0 0 0 0 0 0 0 0 0 127 0" result="hardAlpha"/>
<feOffset dy="4"/>
<feGaussianBlur stdDeviation="2"/>
<feComposite in2="hardAlpha" operator="out"/>
<feColorMatrix type="matrix" values="0 0 0 0 0 0 0 0 0 0 0 0 0 0 0 0 0 0 0.31 0"/>
<feBlend mode="normal" in2="BackgroundImageFix" result="effect1_dropShadow_205_131"/>
<feBlend mode="normal" in="SourceGraphic" in2="effect1_dropShadow_205_131" result="shape"/>
</filter>
</defs>
</svg>
