<svg width="256" height="256" viewBox="0 0 256 256" fill="none" xmlns="http://www.w3.org/2000/svg">
<ellipse cx="52.9222" cy="52.0197" rx="52.9222" ry="52.0197" transform="matrix(-0.609101 -0.793093 -0.710065 0.704136 256 138.18)" fill="#7B99F4"/>
<ellipse cx="52.9222" cy="52.0197" rx="52.9222" ry="52.0197" transform="matrix(-0.609101 -0.793093 -0.710065 0.704136 196.097 83.9443)" fill="#0082CD"/>
<ellipse cx="52.0197" cy="52.9222" rx="52.0197" ry="52.9222" transform="matrix(0.710065 -0.704136 -0.609101 -0.793093 123.3 256)" fill="#FFBF20"/>
<ellipse cx="52.0197" cy="52.9222" rx="52.0197" ry="52.9222" transform="matrix(0.710065 -0.704136 -0.609101 -0.793093 64.47 211.434)" fill="#488B36"/>
<g filter="url(#filter0_d_205_142)">
<path d="M106.82 149.711L107.836 155.922C105.857 156.339 104.086 156.547 102.523 156.547C99.9714 156.547 97.9922 156.143 96.5859 155.336C95.1797 154.529 94.1901 153.474 93.6172 152.172C93.0443 150.844 92.7578 148.07 92.7578 143.852V119.984H87.6016V114.516H92.7578V104.242L99.75 100.023V114.516H106.82V119.984H99.75V144.242C99.75 146.247 99.8672 147.536 100.102 148.109C100.362 148.682 100.766 149.138 101.312 149.477C101.885 149.815 102.693 149.984 103.734 149.984C104.516 149.984 105.544 149.893 106.82 149.711ZM142.133 142.641L149.398 143.539C148.253 147.784 146.13 151.078 143.031 153.422C139.932 155.766 135.974 156.938 131.156 156.938C125.089 156.938 120.271 155.076 116.703 151.352C113.161 147.602 111.391 142.354 111.391 135.609C111.391 128.63 113.188 123.214 116.781 119.359C120.375 115.505 125.036 113.578 130.766 113.578C136.312 113.578 140.844 115.466 144.359 119.242C147.875 123.018 149.633 128.331 149.633 135.18C149.633 135.596 149.62 136.221 149.594 137.055H118.656C118.917 141.612 120.206 145.102 122.523 147.523C124.841 149.945 127.732 151.156 131.195 151.156C133.773 151.156 135.974 150.479 137.797 149.125C139.62 147.771 141.065 145.609 142.133 142.641ZM119.047 131.273H142.211C141.898 127.784 141.013 125.167 139.555 123.422C137.315 120.714 134.411 119.359 130.844 119.359C127.615 119.359 124.893 120.44 122.68 122.602C120.492 124.763 119.281 127.654 119.047 131.273ZM158.305 106.82V98.7344H165.336V106.82H158.305ZM158.305 156V114.516H165.336V156H158.305Z" fill="white"/>
</g>
<rect x="160" y="100.5" width="4" height="4" fill="black"/>
<defs>
<filter id="filter0_d_205_142" x="83.6016" y="98.7344" width="85.7344" height="66.2031" filterUnits="userSpaceOnUse" color-interpolation-filters="sRGB">
<feFlood flood-opacity="0" result="BackgroundImageFix"/>
<feColorMatrix in="SourceAlpha" type="matrix" values="0 0 0 0 0 0 0 0 0 0 0 0 0 0 0 0 0 0 127 0" result="hardAlpha"/>
<feOffset dy="4"/>
<feGaussianBlur stdDeviation="2"/>
<feComposite in2="hardAlpha" operator="out"/>
<feColorMatrix type="matrix" values="0 0 0 0 0 0 0 0 0 0 0 0 0 0 0 0 0 0 0.31 0"/>
<feBlend mode="normal" in2="BackgroundImageFix" result="effect1_dropShadow_205_142"/>
<feBlend mode="normal" in="SourceGraphic" in2="effect1_dropShadow_205_142" result="shape"/>
</filter>
</defs>
</svg>
