<svg width="128" height="128" viewBox="0 0 128 128" fill="none" xmlns="http://www.w3.org/2000/svg">
<ellipse cx="26.4611" cy="26.0098" rx="26.4611" ry="26.0098" transform="matrix(-0.609101 -0.793093 -0.710065 0.704136 128 69.0898)" fill="#7B99F4"/>
<ellipse cx="26.4611" cy="26.0098" rx="26.4611" ry="26.0098" transform="matrix(-0.609101 -0.793093 -0.710065 0.704136 98.0486 41.9722)" fill="#0082CD"/>
<ellipse cx="26.0098" cy="26.4611" rx="26.0098" ry="26.4611" transform="matrix(0.710065 -0.704136 -0.609101 -0.793093 61.6501 128)" fill="#FFBF20"/>
<ellipse cx="26.0098" cy="26.4611" rx="26.0098" ry="26.4611" transform="matrix(0.710065 -0.704136 -0.609101 -0.793093 32.2351 105.717)" fill="#488B36"/>
<g filter="url(#filter0_d_205_98)">
<path d="M53.6602 74.8555L54.168 77.9609C53.1784 78.1693 52.293 78.2734 51.5117 78.2734C50.2357 78.2734 49.2461 78.0716 48.543 77.668C47.8398 77.2643 47.3451 76.737 47.0586 76.0859C46.7721 75.4219 46.6289 74.0352 46.6289 71.9258V59.9922H44.0508V57.2578H46.6289V52.1211L50.125 50.0117V57.2578H53.6602V59.9922H50.125V72.1211C50.125 73.1237 50.1836 73.7682 50.3008 74.0547C50.431 74.3411 50.6328 74.569 50.9062 74.7383C51.1927 74.9076 51.5964 74.9922 52.1172 74.9922C52.5078 74.9922 53.0221 74.9466 53.6602 74.8555ZM71.3164 71.3203L74.9492 71.7695C74.3763 73.8919 73.3151 75.5391 71.7656 76.7109C70.2161 77.8828 68.237 78.4688 65.8281 78.4688C62.7943 78.4688 60.3854 77.5378 58.6016 75.6758C56.8307 73.8008 55.9453 71.1771 55.9453 67.8047C55.9453 64.3151 56.8438 61.6068 58.6406 59.6797C60.4375 57.7526 62.7682 56.7891 65.6328 56.7891C68.4062 56.7891 70.6719 57.7331 72.4297 59.6211C74.1875 61.5091 75.0664 64.1654 75.0664 67.5898C75.0664 67.7982 75.0599 68.1107 75.0469 68.5273H59.5781C59.7083 70.806 60.3529 72.5508 61.5117 73.7617C62.6706 74.9727 64.1159 75.5781 65.8477 75.5781C67.1367 75.5781 68.237 75.2396 69.1484 74.5625C70.0599 73.8854 70.7826 72.8047 71.3164 71.3203ZM59.7734 65.6367H71.3555C71.1992 63.8919 70.7565 62.5833 70.0273 61.7109C68.9076 60.3568 67.4557 59.6797 65.6719 59.6797C64.0573 59.6797 62.6966 60.2201 61.5898 61.3008C60.4961 62.3815 59.8906 63.8268 59.7734 65.6367ZM79.4023 53.4102V49.3672H82.918V53.4102H79.4023ZM79.4023 78V57.2578H82.918V78H79.4023Z" fill="white"/>
</g>
<rect x="80.25" y="50.5" width="2" height="2" fill="black"/>
<defs>
<filter id="filter0_d_205_98" x="40.0508" y="49.3672" width="46.8672" height="37.1016" filterUnits="userSpaceOnUse" color-interpolation-filters="sRGB">
<feFlood flood-opacity="0" result="BackgroundImageFix"/>
<feColorMatrix in="SourceAlpha" type="matrix" values="0 0 0 0 0 0 0 0 0 0 0 0 0 0 0 0 0 0 127 0" result="hardAlpha"/>
<feOffset dy="4"/>
<feGaussianBlur stdDeviation="2"/>
<feComposite in2="hardAlpha" operator="out"/>
<feColorMatrix type="matrix" values="0 0 0 0 0 0 0 0 0 0 0 0 0 0 0 0 0 0 0.31 0"/>
<feBlend mode="normal" in2="BackgroundImageFix" result="effect1_dropShadow_205_98"/>
<feBlend mode="normal" in="SourceGraphic" in2="effect1_dropShadow_205_98" result="shape"/>
</filter>
</defs>
</svg>
