<svg width="32" height="32" viewBox="0 0 32 32" fill="none" xmlns="http://www.w3.org/2000/svg">
<ellipse cx="6.61528" cy="6.50246" rx="6.61528" ry="6.50246" transform="matrix(-0.609101 -0.793093 -0.710065 0.704136 32 17.2725)" fill="#7B99F4"/>
<ellipse cx="6.61528" cy="6.50246" rx="6.61528" ry="6.50246" transform="matrix(-0.609101 -0.793093 -0.710065 0.704136 24.5122 10.4932)" fill="#0082CD"/>
<ellipse cx="6.50246" cy="6.61528" rx="6.50246" ry="6.61528" transform="matrix(0.710065 -0.704136 -0.609101 -0.793093 15.4126 32)" fill="#FFBF20"/>
<ellipse cx="6.50246" cy="6.61528" rx="6.50246" ry="6.61528" transform="matrix(0.710065 -0.704136 -0.609101 -0.793093 8.05884 26.4292)" fill="#488B36"/>
<g filter="url(#filter0_d_205_76)">
<path d="M13.79 19.2139L13.917 19.9902C13.6696 20.0423 13.4482 20.0684 13.2529 20.0684C12.9339 20.0684 12.6865 20.0179 12.5107 19.917C12.335 19.8161 12.2113 19.6842 12.1396 19.5215C12.068 19.3555 12.0322 19.0088 12.0322 18.4814V15.498H11.3877V14.8145H12.0322V13.5303L12.9062 13.0029V14.8145H13.79V15.498H12.9062V18.5303C12.9062 18.7809 12.9209 18.9421 12.9502 19.0137C12.9827 19.0853 13.0332 19.1423 13.1016 19.1846C13.1732 19.2269 13.2741 19.248 13.4043 19.248C13.502 19.248 13.6305 19.2367 13.79 19.2139ZM18.2041 18.3301L19.1123 18.4424C18.9691 18.973 18.7038 19.3848 18.3164 19.6777C17.929 19.9707 17.4342 20.1172 16.832 20.1172C16.0736 20.1172 15.4714 19.8844 15.0254 19.4189C14.5827 18.9502 14.3613 18.2943 14.3613 17.4512C14.3613 16.5788 14.5859 15.9017 15.0352 15.4199C15.4844 14.9382 16.0671 14.6973 16.7832 14.6973C17.4766 14.6973 18.043 14.9333 18.4824 15.4053C18.9219 15.8773 19.1416 16.5413 19.1416 17.3975C19.1416 17.4495 19.14 17.5277 19.1367 17.6318H15.2695C15.3021 18.2015 15.4632 18.6377 15.7529 18.9404C16.0426 19.2432 16.404 19.3945 16.8369 19.3945C17.1592 19.3945 17.4342 19.3099 17.6621 19.1406C17.89 18.9714 18.0706 18.7012 18.2041 18.3301ZM15.3184 16.9092H18.2139C18.1748 16.473 18.0641 16.1458 17.8818 15.9277C17.6019 15.5892 17.2389 15.4199 16.793 15.4199C16.3893 15.4199 16.0492 15.555 15.7725 15.8252C15.499 16.0954 15.3477 16.4567 15.3184 16.9092ZM20.2256 13.8525V12.8418H21.1045V13.8525H20.2256ZM20.2256 20V14.8145H21.1045V20H20.2256Z" fill="white"/>
</g>
<rect x="20.4199" y="13.0801" width="0.5" height="0.5" fill="black"/>
<defs>
<filter id="filter0_d_205_76" x="7.3877" y="12.8418" width="17.7168" height="15.2754" filterUnits="userSpaceOnUse" color-interpolation-filters="sRGB">
<feFlood flood-opacity="0" result="BackgroundImageFix"/>
<feColorMatrix in="SourceAlpha" type="matrix" values="0 0 0 0 0 0 0 0 0 0 0 0 0 0 0 0 0 0 127 0" result="hardAlpha"/>
<feOffset dy="4"/>
<feGaussianBlur stdDeviation="2"/>
<feComposite in2="hardAlpha" operator="out"/>
<feColorMatrix type="matrix" values="0 0 0 0 0 0 0 0 0 0 0 0 0 0 0 0 0 0 0.31 0"/>
<feBlend mode="normal" in2="BackgroundImageFix" result="effect1_dropShadow_205_76"/>
<feBlend mode="normal" in="SourceGraphic" in2="effect1_dropShadow_205_76" result="shape"/>
</filter>
</defs>
</svg>
