<svg width="16" height="19" viewBox="0 0 16 19" fill="none" xmlns="http://www.w3.org/2000/svg">
<ellipse cx="3.30764" cy="3.25123" rx="3.30764" ry="3.25123" transform="matrix(-0.609101 -0.793093 -0.710065 0.704136 16 8.63623)" fill="#7B99F4"/>
<ellipse cx="3.30764" cy="3.25123" rx="3.30764" ry="3.25123" transform="matrix(-0.609101 -0.793093 -0.710065 0.704136 12.2561 5.24658)" fill="#0082CD"/>
<ellipse cx="3.25123" cy="3.30764" rx="3.25123" ry="3.30764" transform="matrix(0.710065 -0.704136 -0.609101 -0.793093 7.7063 16)" fill="#FFBF20"/>
<ellipse cx="3.25123" cy="3.30764" rx="3.25123" ry="3.30764" transform="matrix(0.710065 -0.704136 -0.609101 -0.793093 4.0293 13.2148)" fill="#488B36"/>
<g filter="url(#filter0_d_205_120)">
<path d="M6.64502 9.60693L6.7085 9.99512C6.5848 10.0212 6.47412 10.0342 6.37646 10.0342C6.21696 10.0342 6.09326 10.009 6.00537 9.9585C5.91748 9.90804 5.85563 9.84212 5.81982 9.76074C5.78402 9.67773 5.76611 9.50439 5.76611 9.24072V7.74902H5.44385V7.40723H5.76611V6.76514L6.20312 6.50146V7.40723H6.64502V7.74902H6.20312V9.26514C6.20312 9.39046 6.21045 9.47103 6.2251 9.50684C6.24137 9.54264 6.2666 9.57113 6.30078 9.59229C6.33659 9.61344 6.38704 9.62402 6.45215 9.62402C6.50098 9.62402 6.56527 9.61833 6.64502 9.60693ZM8.85205 9.16504L9.30615 9.22119C9.23454 9.48649 9.10189 9.69238 8.9082 9.83887C8.71452 9.98535 8.46712 10.0586 8.16602 10.0586C7.78678 10.0586 7.48568 9.94222 7.2627 9.70947C7.04134 9.4751 6.93066 9.14714 6.93066 8.72559C6.93066 8.28939 7.04297 7.95085 7.26758 7.70996C7.49219 7.46908 7.78353 7.34863 8.1416 7.34863C8.48828 7.34863 8.77148 7.46663 8.99121 7.70264C9.21094 7.93864 9.3208 8.27067 9.3208 8.69873C9.3208 8.72477 9.31999 8.76383 9.31836 8.81592H7.38477C7.40104 9.10075 7.48161 9.31885 7.62646 9.47021C7.77132 9.62158 7.95199 9.69727 8.16846 9.69727C8.32959 9.69727 8.46712 9.65495 8.58105 9.57031C8.69499 9.48568 8.78532 9.35059 8.85205 9.16504ZM7.40918 8.45459H8.85693C8.8374 8.23649 8.78206 8.07292 8.69092 7.96387C8.55094 7.7946 8.36947 7.70996 8.14648 7.70996C7.94466 7.70996 7.77458 7.77751 7.63623 7.9126C7.49951 8.04769 7.42383 8.22835 7.40918 8.45459ZM9.86279 6.92627V6.4209H10.3022V6.92627H9.86279ZM9.86279 10V7.40723H10.3022V10H9.86279Z" fill="white"/>
</g>
<rect x="9.95996" y="6.54004" width="0.25" height="0.25" fill="black"/>
<defs>
<filter id="filter0_d_205_120" x="1.44385" y="6.4209" width="12.8584" height="11.6377" filterUnits="userSpaceOnUse" color-interpolation-filters="sRGB">
<feFlood flood-opacity="0" result="BackgroundImageFix"/>
<feColorMatrix in="SourceAlpha" type="matrix" values="0 0 0 0 0 0 0 0 0 0 0 0 0 0 0 0 0 0 127 0" result="hardAlpha"/>
<feOffset dy="4"/>
<feGaussianBlur stdDeviation="2"/>
<feComposite in2="hardAlpha" operator="out"/>
<feColorMatrix type="matrix" values="0 0 0 0 0 0 0 0 0 0 0 0 0 0 0 0 0 0 0.31 0"/>
<feBlend mode="normal" in2="BackgroundImageFix" result="effect1_dropShadow_205_120"/>
<feBlend mode="normal" in="SourceGraphic" in2="effect1_dropShadow_205_120" result="shape"/>
</filter>
</defs>
</svg>
